<svg viewBox="0 0 60 60" xmlns="http://www.w3.org/2000/svg" fill="#000000">
<g id="SVGRepo_bgCarrier" stroke-width="0"></g>
<g id="SVGRepo_tracerCarrier" stroke-linecap="round" stroke-linejoin="round"></g>
<g id="SVGRepo_iconCarrier"><path d="M30,22a7.99,7.99,0,0,1,6.921,12h.007L26.68,51.75A22.012,22.012,0,0,0,52,30a21.934,21.934,0,0,0-1.507-8Z" fill="#ffe1a0"></path><path d="M30,53.5a23.9,23.9,0,0,1-3.544-.266A1.5,1.5,0,0,1,25.381,51l10.18-17.632c.018-.041.04-.081.062-.12A6.49,6.49,0,0,0,30,23.5a1.5,1.5,0,0,1,0-3H50.493a1.5,1.5,0,0,1,1.4.954A23.5,23.5,0,0,1,30,53.5Zm-.856-3.018q.429.018.856.018a20.5,20.5,0,0,0,19.442-27H36.922a9.47,9.47,0,0,1,1.37,11.123c-.02.043-.041.085-.065.127Z" fill="#f29580"></path><path d="M23.079,34A7.99,7.99,0,0,1,30,22H50.493a21.994,21.994,0,0,0-37.666-5.744L23.072,34Z" fill="#ffafc5"></path><path d="M23.079,35.5h-.007a1.5,1.5,0,0,1-1.3-.75L11.528,17.006a1.5,1.5,0,0,1,.128-1.688,23.5,23.5,0,0,1,40.235,6.136,1.5,1.5,0,0,1-1.4,2.046H30a6.49,6.49,0,0,0-5.623,9.748,1.5,1.5,0,0,1-1.3,2.252ZM14.652,16.417l6.254,10.832A9.518,9.518,0,0,1,30,20.5H48.168a20.5,20.5,0,0,0-33.516-4.083Z" fill="#f28080"></path><path d="M50.493,23.5a1.5,1.5,0,0,1-1.4-.954A20.494,20.494,0,0,0,14,17.194a1.5,1.5,0,0,1-2.342-1.876,23.5,23.5,0,0,1,40.235,6.136,1.5,1.5,0,0,1-1.4,2.046Z" fill="#f29580"></path><path d="M36.921,34a7.988,7.988,0,0,1-13.842,0h-.007L12.827,16.256A22,22,0,0,0,26.68,51.75L36.928,34Z" fill="#c1f7fd"></path><path d="M26.68,53.25a1.421,1.421,0,0,1-.225-.017A23.637,23.637,0,0,1,6.5,30a23.247,23.247,0,0,1,5.156-14.682,1.5,1.5,0,0,1,2.47.188L24.307,33.139c.025.035.048.071.07.109a6.487,6.487,0,0,0,11.246,0,1.5,1.5,0,0,1,1.3-.748h.007a1.5,1.5,0,0,1,1.3,2.25L27.979,52.5A1.5,1.5,0,0,1,26.68,53.25ZM12.689,19.018A20.251,20.251,0,0,0,9.5,30,20.631,20.631,0,0,0,25.906,50.09l6.261-10.843A9.43,9.43,0,0,1,30,39.5a9.533,9.533,0,0,1-8.148-4.628c-.028-.039-.054-.08-.079-.122Z" fill="#7bcdd1"></path><circle cx="30" cy="30" fill="#c1f7fd" r="8"></circle><path d="M30,39.5A9.5,9.5,0,1,1,39.5,30,9.511,9.511,0,0,1,30,39.5Zm0-16A6.5,6.5,0,1,0,36.5,30,6.508,6.508,0,0,0,30,23.5Z" fill="#8d9cf4"></path><path d="M22,31.5A1.5,1.5,0,0,1,20.5,30,9.511,9.511,0,0,1,30,20.5a1.5,1.5,0,0,1,0,3A6.508,6.508,0,0,0,23.5,30,1.5,1.5,0,0,1,22,31.5Z" fill="#bec6f4">
</path></g></svg>